<svg width="307" height="307" viewBox="0 0 307 307" fill="none" xmlns="http://www.w3.org/2000/svg">
<circle cx="153.5" cy="153.5" r="153.5" fill="url(#paint0_radial_14_5)"/>
<path d="M98.35 168.36C97.43 168.36 96.6 168.15 95.86 167.73C95.14 167.29 94.61 166.61 94.27 165.69L88 147H92.77L97.84 163.92C97.88 164.06 97.94 164.16 98.02 164.22C98.12 164.28 98.23 164.31 98.35 164.31C98.47 164.31 98.57 164.28 98.65 164.22C98.75 164.16 98.82 164.06 98.86 163.92L104.11 147H108.67L102.43 165.66C102.11 166.56 101.58 167.24 100.84 167.7C100.1 168.14 99.27 168.36 98.35 168.36ZM110.634 168V152.7H114.774V168H110.634ZM112.704 150.87C112.004 150.87 111.394 150.62 110.874 150.12C110.374 149.6 110.124 148.99 110.124 148.29C110.124 147.59 110.374 146.99 110.874 146.49C111.394 145.97 112.004 145.71 112.704 145.71C113.404 145.71 114.004 145.97 114.504 146.49C115.024 146.99 115.284 147.59 115.284 148.29C115.284 148.99 115.024 149.6 114.504 150.12C114.004 150.62 113.404 150.87 112.704 150.87ZM126.342 168C124.602 168 123.082 167.67 121.782 167.01C120.502 166.33 119.502 165.41 118.782 164.25C118.082 163.09 117.732 161.79 117.732 160.35C117.732 158.73 118.062 157.32 118.722 156.12C119.382 154.92 120.282 153.99 121.422 153.33C122.562 152.67 123.852 152.34 125.292 152.34C127.012 152.34 128.402 152.7 129.462 153.42C130.542 154.14 131.332 155.11 131.832 156.33C132.332 157.53 132.582 158.87 132.582 160.35C132.582 160.55 132.572 160.79 132.552 161.07C132.532 161.33 132.502 161.53 132.462 161.67H122.112C122.272 162.29 122.542 162.81 122.922 163.23C123.322 163.65 123.812 163.97 124.392 164.19C124.992 164.39 125.662 164.49 126.402 164.49H130.662V168H126.342ZM122.082 158.91H128.472C128.432 158.53 128.362 158.18 128.262 157.86C128.162 157.52 128.022 157.22 127.842 156.96C127.662 156.7 127.452 156.48 127.212 156.3C126.972 156.12 126.692 155.98 126.372 155.88C126.052 155.78 125.702 155.73 125.322 155.73C124.822 155.73 124.372 155.82 123.972 156C123.592 156.18 123.272 156.42 123.012 156.72C122.752 157.02 122.542 157.36 122.382 157.74C122.242 158.12 122.142 158.51 122.082 158.91ZM141.147 168.36C140.107 168.36 139.157 168.16 138.297 167.76C137.437 167.34 136.747 166.71 136.227 165.87C135.727 165.03 135.477 163.97 135.477 162.69V152.7H139.587V163.29C139.587 163.57 139.657 163.83 139.797 164.07C139.937 164.31 140.127 164.5 140.367 164.64C140.607 164.78 140.867 164.85 141.147 164.85C141.427 164.85 141.687 164.78 141.927 164.64C142.167 164.5 142.357 164.31 142.497 164.07C142.637 163.83 142.707 163.57 142.707 163.29V158.01C142.707 156.81 142.937 155.79 143.397 154.95C143.877 154.11 144.537 153.47 145.377 153.03C146.237 152.57 147.237 152.34 148.377 152.34C149.517 152.34 150.507 152.57 151.347 153.03C152.207 153.47 152.867 154.11 153.327 154.95C153.807 155.79 154.047 156.81 154.047 158.01V163.29C154.047 163.57 154.117 163.83 154.257 164.07C154.397 164.31 154.587 164.5 154.827 164.64C155.067 164.78 155.327 164.85 155.607 164.85C155.907 164.85 156.167 164.78 156.387 164.64C156.627 164.5 156.817 164.31 156.957 164.07C157.097 163.83 157.167 163.57 157.167 163.29V152.7H161.277V162.69C161.277 163.97 161.017 165.03 160.497 165.87C159.997 166.71 159.317 167.34 158.457 167.76C157.597 168.16 156.647 168.36 155.607 168.36C154.587 168.36 153.647 168.16 152.787 167.76C151.927 167.34 151.237 166.71 150.717 165.87C150.197 165.03 149.937 163.97 149.937 162.69V157.41C149.937 157.11 149.867 156.85 149.727 156.63C149.587 156.39 149.397 156.2 149.157 156.06C148.937 155.92 148.677 155.85 148.377 155.85C148.097 155.85 147.837 155.92 147.597 156.06C147.357 156.2 147.167 156.39 147.027 156.63C146.887 156.85 146.817 157.11 146.817 157.41V162.69C146.817 163.97 146.557 165.03 146.037 165.87C145.517 166.71 144.827 167.34 143.967 167.76C143.127 168.16 142.187 168.36 141.147 168.36ZM173.124 168V158.91C173.124 157.71 173.414 156.61 173.994 155.61C174.574 154.61 175.404 153.82 176.484 153.24C177.584 152.64 178.904 152.34 180.444 152.34C181.184 152.34 181.864 152.43 182.484 152.61C183.124 152.77 183.714 153.01 184.254 153.33C184.794 153.65 185.264 154.03 185.664 154.47H185.694C186.114 154.03 186.594 153.65 187.134 153.33C187.674 153.01 188.264 152.77 188.904 152.61C189.544 152.43 190.234 152.34 190.974 152.34C192.514 152.34 193.824 152.64 194.904 153.24C196.004 153.82 196.844 154.61 197.424 155.61C198.004 156.61 198.294 157.71 198.294 158.91V168H194.184V158.91C194.184 158.35 194.034 157.84 193.734 157.38C193.454 156.92 193.074 156.55 192.594 156.27C192.114 155.99 191.574 155.85 190.974 155.85C190.394 155.85 189.854 155.99 189.354 156.27C188.874 156.55 188.484 156.92 188.184 157.38C187.904 157.84 187.764 158.35 187.764 158.91V168H183.654V158.91C183.654 158.35 183.504 157.84 183.204 157.38C182.924 156.92 182.544 156.55 182.064 156.27C181.584 155.99 181.044 155.85 180.444 155.85C179.864 155.85 179.324 155.99 178.824 156.27C178.344 156.55 177.954 156.92 177.654 157.38C177.374 157.84 177.234 158.35 177.234 158.91V168H173.124ZM209.896 168C208.156 168 206.636 167.67 205.336 167.01C204.056 166.33 203.056 165.41 202.336 164.25C201.636 163.09 201.286 161.79 201.286 160.35C201.286 158.73 201.616 157.32 202.276 156.12C202.936 154.92 203.836 153.99 204.976 153.33C206.116 152.67 207.406 152.34 208.846 152.34C210.566 152.34 211.956 152.7 213.016 153.42C214.096 154.14 214.886 155.11 215.386 156.33C215.886 157.53 216.136 158.87 216.136 160.35C216.136 160.55 216.126 160.79 216.106 161.07C216.086 161.33 216.056 161.53 216.016 161.67H205.666C205.826 162.29 206.096 162.81 206.476 163.23C206.876 163.65 207.366 163.97 207.946 164.19C208.546 164.39 209.216 164.49 209.956 164.49H214.216V168H209.896ZM205.636 158.91H212.026C211.986 158.53 211.916 158.18 211.816 157.86C211.716 157.52 211.576 157.22 211.396 156.96C211.216 156.7 211.006 156.48 210.766 156.3C210.526 156.12 210.246 155.98 209.926 155.88C209.606 155.78 209.256 155.73 208.876 155.73C208.376 155.73 207.926 155.82 207.526 156C207.146 156.18 206.826 156.42 206.566 156.72C206.306 157.02 206.096 157.36 205.936 157.74C205.796 158.12 205.696 158.51 205.636 158.91Z" fill="#686868"/>
<defs>
<radialGradient id="paint0_radial_14_5" cx="0" cy="0" r="1" gradientUnits="userSpaceOnUse" gradientTransform="translate(153.5 153.5) rotate(90) scale(153.5)">
<stop stop-color="#FFF9C2"/>
<stop offset="1" stop-color="#9D721E"/>
</radialGradient>
</defs>
</svg>
