<svg width="307" height="307" viewBox="0 0 307 307" fill="none" xmlns="http://www.w3.org/2000/svg">
<circle cx="153.5" cy="153.5" r="153.5" fill="url(#paint0_radial_14_4)"/>
<path d="M97.35 174.36C96.43 174.36 95.6 174.15 94.86 173.73C94.14 173.29 93.61 172.61 93.27 171.69L87 153H91.77L96.84 169.92C96.88 170.06 96.94 170.16 97.02 170.22C97.12 170.28 97.23 170.31 97.35 170.31C97.47 170.31 97.57 170.28 97.65 170.22C97.75 170.16 97.82 170.06 97.86 169.92L103.11 153H107.67L101.43 171.66C101.11 172.56 100.58 173.24 99.84 173.7C99.1 174.14 98.27 174.36 97.35 174.36ZM109.634 174V158.7H113.774V174H109.634ZM111.704 156.87C111.004 156.87 110.394 156.62 109.874 156.12C109.374 155.6 109.124 154.99 109.124 154.29C109.124 153.59 109.374 152.99 109.874 152.49C110.394 151.97 111.004 151.71 111.704 151.71C112.404 151.71 113.004 151.97 113.504 152.49C114.024 152.99 114.284 153.59 114.284 154.29C114.284 154.99 114.024 155.6 113.504 156.12C113.004 156.62 112.404 156.87 111.704 156.87ZM125.342 174C123.602 174 122.082 173.67 120.782 173.01C119.502 172.33 118.502 171.41 117.782 170.25C117.082 169.09 116.732 167.79 116.732 166.35C116.732 164.73 117.062 163.32 117.722 162.12C118.382 160.92 119.282 159.99 120.422 159.33C121.562 158.67 122.852 158.34 124.292 158.34C126.012 158.34 127.402 158.7 128.462 159.42C129.542 160.14 130.332 161.11 130.832 162.33C131.332 163.53 131.582 164.87 131.582 166.35C131.582 166.55 131.572 166.79 131.552 167.07C131.532 167.33 131.502 167.53 131.462 167.67H121.112C121.272 168.29 121.542 168.81 121.922 169.23C122.322 169.65 122.812 169.97 123.392 170.19C123.992 170.39 124.662 170.49 125.402 170.49H129.662V174H125.342ZM121.082 164.91H127.472C127.432 164.53 127.362 164.18 127.262 163.86C127.162 163.52 127.022 163.22 126.842 162.96C126.662 162.7 126.452 162.48 126.212 162.3C125.972 162.12 125.692 161.98 125.372 161.88C125.052 161.78 124.702 161.73 124.322 161.73C123.822 161.73 123.372 161.82 122.972 162C122.592 162.18 122.272 162.42 122.012 162.72C121.752 163.02 121.542 163.36 121.382 163.74C121.242 164.12 121.142 164.51 121.082 164.91ZM140.147 174.36C139.107 174.36 138.157 174.16 137.297 173.76C136.437 173.34 135.747 172.71 135.227 171.87C134.727 171.03 134.477 169.97 134.477 168.69V158.7H138.587V169.29C138.587 169.57 138.657 169.83 138.797 170.07C138.937 170.31 139.127 170.5 139.367 170.64C139.607 170.78 139.867 170.85 140.147 170.85C140.427 170.85 140.687 170.78 140.927 170.64C141.167 170.5 141.357 170.31 141.497 170.07C141.637 169.83 141.707 169.57 141.707 169.29V164.01C141.707 162.81 141.937 161.79 142.397 160.95C142.877 160.11 143.537 159.47 144.377 159.03C145.237 158.57 146.237 158.34 147.377 158.34C148.517 158.34 149.507 158.57 150.347 159.03C151.207 159.47 151.867 160.11 152.327 160.95C152.807 161.79 153.047 162.81 153.047 164.01V169.29C153.047 169.57 153.117 169.83 153.257 170.07C153.397 170.31 153.587 170.5 153.827 170.64C154.067 170.78 154.327 170.85 154.607 170.85C154.907 170.85 155.167 170.78 155.387 170.64C155.627 170.5 155.817 170.31 155.957 170.07C156.097 169.83 156.167 169.57 156.167 169.29V158.7H160.277V168.69C160.277 169.97 160.017 171.03 159.497 171.87C158.997 172.71 158.317 173.34 157.457 173.76C156.597 174.16 155.647 174.36 154.607 174.36C153.587 174.36 152.647 174.16 151.787 173.76C150.927 173.34 150.237 172.71 149.717 171.87C149.197 171.03 148.937 169.97 148.937 168.69V163.41C148.937 163.11 148.867 162.85 148.727 162.63C148.587 162.39 148.397 162.2 148.157 162.06C147.937 161.92 147.677 161.85 147.377 161.85C147.097 161.85 146.837 161.92 146.597 162.06C146.357 162.2 146.167 162.39 146.027 162.63C145.887 162.85 145.817 163.11 145.817 163.41V168.69C145.817 169.97 145.557 171.03 145.037 171.87C144.517 172.71 143.827 173.34 142.967 173.76C142.127 174.16 141.187 174.36 140.147 174.36ZM172.124 174V164.91C172.124 163.71 172.414 162.61 172.994 161.61C173.574 160.61 174.404 159.82 175.484 159.24C176.584 158.64 177.904 158.34 179.444 158.34C180.184 158.34 180.864 158.43 181.484 158.61C182.124 158.77 182.714 159.01 183.254 159.33C183.794 159.65 184.264 160.03 184.664 160.47H184.694C185.114 160.03 185.594 159.65 186.134 159.33C186.674 159.01 187.264 158.77 187.904 158.61C188.544 158.43 189.234 158.34 189.974 158.34C191.514 158.34 192.824 158.64 193.904 159.24C195.004 159.82 195.844 160.61 196.424 161.61C197.004 162.61 197.294 163.71 197.294 164.91V174H193.184V164.91C193.184 164.35 193.034 163.84 192.734 163.38C192.454 162.92 192.074 162.55 191.594 162.27C191.114 161.99 190.574 161.85 189.974 161.85C189.394 161.85 188.854 161.99 188.354 162.27C187.874 162.55 187.484 162.92 187.184 163.38C186.904 163.84 186.764 164.35 186.764 164.91V174H182.654V164.91C182.654 164.35 182.504 163.84 182.204 163.38C181.924 162.92 181.544 162.55 181.064 162.27C180.584 161.99 180.044 161.85 179.444 161.85C178.864 161.85 178.324 161.99 177.824 162.27C177.344 162.55 176.954 162.92 176.654 163.38C176.374 163.84 176.234 164.35 176.234 164.91V174H172.124ZM208.896 174C207.156 174 205.636 173.67 204.336 173.01C203.056 172.33 202.056 171.41 201.336 170.25C200.636 169.09 200.286 167.79 200.286 166.35C200.286 164.73 200.616 163.32 201.276 162.12C201.936 160.92 202.836 159.99 203.976 159.33C205.116 158.67 206.406 158.34 207.846 158.34C209.566 158.34 210.956 158.7 212.016 159.42C213.096 160.14 213.886 161.11 214.386 162.33C214.886 163.53 215.136 164.87 215.136 166.35C215.136 166.55 215.126 166.79 215.106 167.07C215.086 167.33 215.056 167.53 215.016 167.67H204.666C204.826 168.29 205.096 168.81 205.476 169.23C205.876 169.65 206.366 169.97 206.946 170.19C207.546 170.39 208.216 170.49 208.956 170.49H213.216V174H208.896ZM204.636 164.91H211.026C210.986 164.53 210.916 164.18 210.816 163.86C210.716 163.52 210.576 163.22 210.396 162.96C210.216 162.7 210.006 162.48 209.766 162.3C209.526 162.12 209.246 161.98 208.926 161.88C208.606 161.78 208.256 161.73 207.876 161.73C207.376 161.73 206.926 161.82 206.526 162C206.146 162.18 205.826 162.42 205.566 162.72C205.306 163.02 205.096 163.36 204.936 163.74C204.796 164.12 204.696 164.51 204.636 164.91Z" fill="#686868"/>
<defs>
<radialGradient id="paint0_radial_14_4" cx="0" cy="0" r="1" gradientUnits="userSpaceOnUse" gradientTransform="translate(153.5 153.5) rotate(90) scale(153.5)">
<stop stop-color="#EB9D7B"/>
<stop offset="1" stop-color="#651E14"/>
</radialGradient>
</defs>
</svg>
